<?xml version="1.0" encoding="utf-8"?><!-- Uploaded to: SVG Repo, www.svgrepo.com, Generator: SVG Repo Mixer Tools -->
<svg width="800px" height="800px" viewBox="0 -3.14 61 61" xmlns="http://www.w3.org/2000/svg">
  <path id="_2" data-name="2" d="M347,160.383H335.014a1.35,1.35,0,0,1-1.351-1.35v-1.81a6.409,6.409,0,0,0-6.39-6.39h-7.05a6.381,6.381,0,0,0-6.38,6.38v1.82a1.35,1.35,0,0,1-1.351,1.35H300.673a7.343,7.343,0,0,0-7.34,7.33v30.52a7.343,7.343,0,0,0,7.34,7.33H347a7.329,7.329,0,0,0,7.33-7.33v-30.52A7.33,7.33,0,0,0,347,160.383Zm-46.33,41.18h0a3.35,3.35,0,0,1-3.34-3.34v-30.51a3.33,3.33,0,0,1,3.33-3.33h.01a1.19,1.19,0,0,1,1.19,1.19v34.8A1.189,1.189,0,0,1,300.673,201.563Zm9.54,0h-4.35v-37.18h4.35Zm7.63-44.34a2.388,2.388,0,0,1,2.38-2.39h7.05a2.39,2.39,0,0,1,2.39,2.39v3.16h-11.82Zm-2.44,7.16h16.77a1.19,1.19,0,0,1,1.19,1.19v34.8a1.189,1.189,0,0,1-1.19,1.19H315.4a1.19,1.19,0,0,1-1.19-1.19v-34.8A1.19,1.19,0,0,1,315.4,164.383Zm21.96,37.18v-37.18h4.35v37.18Zm12.97-3.33a3.33,3.33,0,0,1-3.33,3.33h-.1a1.19,1.19,0,0,1-1.19-1.19v-34.8a1.19,1.19,0,0,1,1.19-1.19h.1a3.33,3.33,0,0,1,3.33,3.33Z" transform="translate(-293.333 -150.833)" fill="#1f1930"/>
</svg>