<svg width="20" height="20" viewBox="0 0 20 20" fill="none" xmlns="http://www.w3.org/2000/svg">
<path id="ic_date" fill-rule="evenodd" clip-rule="evenodd" d="M14 2V1C14 0.448 14.448 0 15 0C15.552 0 16 0.448 16 1V2H17C17.796 2 18.559 2.316 19.121 2.879C19.684 3.441 20 4.204 20 5V17C20 17.796 19.684 18.559 19.121 19.121C18.559 19.684 17.796 20 17 20C13.537 20 6.463 20 3 20C2.204 20 1.441 19.684 0.878998 19.121C0.315998 18.559 0 17.796 0 17C0 13.926 0 8.074 0 5C0 4.204 0.315998 3.441 0.878998 2.879C1.441 2.316 2.204 2 3 2H4V1C4 0.448 4.448 0 5 0C5.552 0 6 0.448 6 1V2H14ZM18 8H2V17C2 17.265 2.105 17.52 2.293 17.707C2.48 17.895 2.735 18 3 18H17C17.265 18 17.52 17.895 17.707 17.707C17.895 17.52 18 17.265 18 17V8ZM8 16H15C15.552 16 16 15.552 16 15C16 14.448 15.552 14 15 14H8C7.448 14 7 14.448 7 15C7 15.552 7.448 16 8 16ZM5 12H12C12.552 12 13 11.552 13 11C13 10.448 12.552 10 12 10H5C4.448 10 4 10.448 4 11C4 11.552 4.448 12 5 12ZM17 4H3C2.735 4 2.48 4.105 2.293 4.293C2.105 4.48 2 4.735 2 5V6H18V5C18 4.735 17.895 4.48 17.707 4.293C17.52 4.105 17.265 4 17 4Z" fill="white"/>
</svg>
