<svg xmlns="http://www.w3.org/2000/svg" width="200" height="200" enable-background="new 0 0 200 200" viewBox="0 0 200 200" id="uae-dirham-symbol">
  <g>
    <g>
      <path fill="#FFF100" fill-rule="evenodd" d="M100,21.611c-21.644,0-41.241,8.775-55.427,22.962
			C30.385,58.759,21.61,78.356,21.61,100s8.774,41.241,22.962,55.427c14.186,14.187,33.784,22.962,55.427,22.962
			c21.642,0,41.241-8.775,55.426-22.962c14.188-14.186,22.963-33.783,22.963-55.427s-8.775-41.241-22.963-55.427
			C141.241,30.387,121.642,21.611,100,21.611z" clip-rule="evenodd"></path>
    </g>
    <g>
      <path fill="#0FA196" fill-rule="evenodd" d="M97.205,183.932c-22.076-0.721-42.001-9.969-56.585-24.552
			c-15.198-15.197-24.6-36.192-24.6-59.38c0-23.187,9.402-44.183,24.6-59.38c14.583-14.585,34.509-23.831,56.585-24.552V5
			c-25.13,0.728-47.82,11.213-64.406,27.799C15.598,49.998,4.958,73.76,4.958,100s10.64,50.002,27.841,67.201
			C49.385,183.787,72.075,194.272,97.205,195V183.932z" clip-rule="evenodd"></path>
    </g>
    <g>
      <path fill="#F97803" fill-rule="evenodd" d="M102.829,16.068c21.062,0.698,41.575,9.574,56.55,24.552
			c15.199,15.197,24.601,36.193,24.601,59.38c0,23.188-9.401,44.183-24.601,59.38c-14.894,14.894-35.29,23.851-56.55,24.55
			L102.795,195l0,0c24.06-0.694,47.477-10.872,64.406-27.799c17.201-17.199,27.841-40.961,27.841-67.201
			s-10.64-50.002-27.841-67.201C149.931,15.53,126.934,5.698,102.795,5l0,0v11.068H102.829z" clip-rule="evenodd"></path>
    </g>
    <g>
      <path fill="#A2238D" fill-rule="evenodd" d="M109.946,67.668c-2.69-2.017-3.235-5.833-1.219-8.523
			c2.019-2.69,5.833-3.234,8.524-1.217c10.23,7.666,20.675,20.861,24.008,32.85c2.725,9.813-4.313,18.689-14.727,18.689h-19.711
			c-3.375,0-6.111-2.736-6.111-6.112c0-3.375,2.736-6.111,6.111-6.111c2.682,0,19.907,0.178,21.107-0.155
			c1.516-0.42,1.979-1.637,1.583-3.064C126.923,84.707,117.901,73.625,109.946,67.668z" clip-rule="evenodd"></path>
    </g>
    <g>
      <path fill="#A2238D" fill-rule="evenodd" d="M78,115.222c2.374-2.387,6.233-2.398,8.618-0.024
			c2.387,2.375,2.399,6.234,0.024,8.619l-6.813,6.819l18.355-1.007c5.59-0.308,8.569,6.471,4.646,10.398L84.768,158.11
			c-2.384,2.386-6.256,2.386-8.643,0c-2.386-2.389-2.386-6.257,0-8.643l6.787-6.789l-18.322,1.004
			c-5.544,0.302-8.591-6.438-4.655-10.384L78,115.222z" clip-rule="evenodd"></path>
    </g>
    <g>
      <path fill="#A2238D" fill-rule="evenodd" d="M75.276,46.214c0-3.378,2.736-6.114,6.112-6.114
			c3.375,0,6.111,2.736,6.111,6.114v57.141c0,3.376-2.736,6.112-6.111,6.112c-3.376,0-6.112-2.736-6.112-6.112V46.214z" clip-rule="evenodd"></path>
    </g>
  </g>
</svg>
