<svg width="21" height="21" viewBox="0 0 21 21" fill="none" xmlns="http://www.w3.org/2000/svg">
<path id="Vector" d="M19.8389 11.5035L19.8389 11.5035L19.8556 18.4118C19.8556 18.4156 19.8556 18.4192 19.8555 18.4224M19.8389 11.5035L19.3555 18.4169L19.8555 18.4178C19.8555 18.4309 19.855 18.4412 19.8547 18.4455L19.8546 18.447C19.8548 18.4437 19.8553 18.4349 19.8555 18.4235C19.8555 18.4232 19.8555 18.4228 19.8555 18.4224M19.8389 11.5035C19.8369 10.7097 19.1919 10.0676 18.3979 10.0695C17.604 10.0713 16.9619 10.7164 16.9638 11.5103L16.9638 11.5104L16.9721 14.9391M19.8389 11.5035L16.9721 14.9391M19.8555 18.4224C19.8532 19.211 19.2133 19.8533 18.422 19.8555C18.4203 19.8555 18.4185 19.8555 18.4167 19.8555L18.4146 19.8555L18.3975 19.8554L11.5036 19.8388L11.5049 19.3388L11.5036 19.8388C10.7099 19.8369 10.0677 19.1919 10.0696 18.3978C10.0715 17.6039 10.7166 16.9619 11.5105 16.9637L11.5105 16.9637L14.9392 16.972L1.75661 3.78943C1.19522 3.22805 1.19522 2.31789 1.75661 1.7565C2.31799 1.19511 3.22815 1.19511 3.78954 1.7565L16.9721 14.9391M19.8555 18.4224C19.8555 18.4204 19.8555 18.4184 19.8555 18.4164L16.9721 14.9391M18.4166 19.8555C18.416 19.8555 18.4153 19.8555 18.4146 19.8555L18.4166 19.8555Z" fill="white" stroke="white"/>
</svg>
