<svg xmlns="http://www.w3.org/2000/svg" enable-background="new 0 0 64 64" viewBox="0 0 64 64" id="scale">
  <linearGradient id="a" x1="50" x2="50" y1=".125" y2="63.885" gradientUnits="userSpaceOnUse">
    <stop offset="0" stop-color="#f9a825"></stop>
    <stop offset="1" stop-color="#e53935"></stop>
  </linearGradient>
  <path fill="url(#a)" d="M50.7,35h-1.3c-0.2,0-0.3,0-0.3-0.1v-0.7c0,0,0,0,0-0.1c0,0,0.1-0.1,0.3-0.1h1.3c0.2,0,0.3,0.1,0.3,0.1
		c0.1,0.5,0.6,0.9,1.1,0.9c0.5-0.1,0.9-0.6,0.9-1.1c-0.1-1-0.9-1.7-2-1.8v-1c0-0.6-0.4-1-1-1s-1,0.4-1,1v1c-1,0.1-1.8,0.8-2,1.7
		c0,0.2,0,0.3,0,0.4V35c0,1.1,1,2,2.3,2h1.3c0.2,0,0.3,0,0.3,0.1v0.8c-0.1,0-0.2,0.1-0.3,0.1h-1.3c-0.2,0-0.3-0.1-0.3-0.1
		c-0.1-0.5-0.5-0.9-1.1-0.9c-0.5,0.1-0.9,0.6-0.9,1.1c0.1,1,0.9,1.7,2,1.9v1c0,0.6,0.4,1,1,1s1-0.4,1-1v-1c1.1-0.1,2-1,2-2v-1
		C53,35.9,52,35,50.7,35z"></path>
  <linearGradient id="b" x1="15.5" x2="15.5" y1=".125" y2="63.885" gradientUnits="userSpaceOnUse">
    <stop offset="0" stop-color="#f9a825"></stop>
    <stop offset="1" stop-color="#e53935"></stop>
  </linearGradient>
  <path fill="url(#b)" d="M17,35h-2v-4c0-0.6-0.4-1-1-1s-1,0.4-1,1v5c0,0.6,0.4,1,1,1h3c0.6,0,1-0.4,1-1S17.6,35,17,35z"></path>
  <linearGradient id="c" x1="32" x2="32" y1=".125" y2="63.885" gradientUnits="userSpaceOnUse">
    <stop offset="0" stop-color="#f9a825"></stop>
    <stop offset="1" stop-color="#e53935"></stop>
  </linearGradient>
  <path fill="url(#c)" d="M57.9,31.7L51.4,12h5.1c1.4,0,2.5-1.1,2.5-2.5S57.9,7,56.5,7H36c0,0,0,0,0,0c-0.9-1.2-2.3-2-4-2s-3.1,0.8-4,2
		c0,0,0,0,0,0H7.5C6.1,7,5,8.1,5,9.5S6.1,12,7.5,12h5.1L6.1,31.7c0,0,0,0.1,0,0.1c-0.7,1.2-1,2.7-1,4.2c0,5,4,9,9,9s9-4,9-9
		c0-1.5-0.4-2.9-1-4.2c0,0,0-0.1,0-0.1L15.4,12h12c0.3,0.8,0.9,1.5,1.6,2c0,0,0,0,0,0v31.2c-1.2,0.4-2,1.5-2,2.8v3h-4
		c-1.7,0-3,1.3-3,3v4c0,0.6,0.4,1,1,1h22c0.6,0,1-0.4,1-1v-4c0-1.7-1.3-3-3-3h-4v-3c0-1.3-0.8-2.4-2-2.8V14c0,0,0,0,0,0
		c0.7-0.5,1.2-1.2,1.6-2h12l-6.6,19.7c0,0,0,0.1,0,0.1c-0.7,1.2-1,2.7-1,4.2c0,5,4,9,9,9s9-4,9-9c0-1.5-0.4-2.9-1-4.2
		C58,31.8,58,31.7,57.9,31.7z M14,14.2l4.7,14.2c-1.4-0.9-3-1.4-4.7-1.4s-3.4,0.5-4.7,1.4L14,14.2z M14,43c-3.9,0-7-3.1-7-7
		s3.1-7,7-7s7,3.1,7,7S17.9,43,14,43z M7.5,10C7.2,10,7,9.8,7,9.5S7.2,9,7.5,9h19.6C27,9.3,27,9.7,27,10H7.5z M42,54v3H22v-3
		c0-0.6,0.4-1,1-1h18C41.6,53,42,53.4,42,54z M29,51v-3c0-0.6,0.4-1,1-1h4c0.6,0,1,0.4,1,1v3H29z M33,45h-2V14.9
		c0.3,0.1,0.7,0.1,1,0.1s0.7,0,1-0.1V45z M32,13c-1.7,0-3-1.3-3-3s1.3-3,3-3s3,1.3,3,3S33.7,13,32,13z M36.9,9h19.6
		C56.8,9,57,9.2,57,9.5S56.8,10,56.5,10H37C37,9.7,37,9.3,36.9,9z M54.7,28.4c-1.4-0.9-3-1.4-4.7-1.4s-3.4,0.5-4.7,1.4L50,14.2
		L54.7,28.4z M50,43c-3.9,0-7-3.1-7-7s3.1-7,7-7s7,3.1,7,7S53.9,43,50,43z"></path>
</svg>
