<svg xmlns="http://www.w3.org/2000/svg" width="32" height="32" id="money">
  <g color="#000" font-family="sans-serif" font-weight="400">
    <path fill="#f8b84e" d="M230.48-49.389c-4.143 0-7.48 3.37-7.48 7.5 0 4.132 3.337 7.5 7.48 7.5 4.143 0 7.52-3.364 7.52-7.5a.5.5 0 0 0-.04-.195.5.5 0 0 0-.001-.002c-.112-4.038-3.407-7.303-7.479-7.303zm0 1c3.603 0 6.52 2.91 6.52 6.5 0 3.593-2.917 6.5-6.52 6.5a6.47 6.47 0 0 1-6.48-6.5c0-3.594 2.877-6.5 6.48-6.5z" overflow="visible" style="line-height:normal;text-indent:0;text-align:start;text-decoration-line:none;text-decoration-style:solid;text-decoration-color:#000;text-transform:none;block-progression:tb;isolation:auto;mix-blend-mode:normal" transform="translate(-206 49.389)"></path>
    <path fill="#34485c" fill-rule="evenodd" d="M227.979-45.379v1h1.025c1.207 0 1.658.736 1.658 1.49 0 .755-.45 1.49-1.658 1.49h-1.025v1h1.025c1.669 0 2.658-1.254 2.658-2.49 0-1.236-.99-2.49-2.658-2.49h-1.025z" overflow="visible" style="line-height:normal;text-indent:0;text-align:start;text-decoration-line:none;text-decoration-style:solid;text-decoration-color:#000;text-transform:none;block-progression:tb;isolation:auto;mix-blend-mode:normal" transform="translate(-206 49.389)"></path>
    <path fill="#34485c" fill-rule="evenodd" d="M228-43.388v1h4.97v-1H228zm0-2v1h4.97v-1H228zm.646 3.986-.699.715 3.38 3.3.696-.715-3.377-3.3z" overflow="visible" style="line-height:normal;text-indent:0;text-align:start;text-decoration-line:none;text-decoration-style:solid;text-decoration-color:#000;text-transform:none;block-progression:tb;isolation:auto;mix-blend-mode:normal" transform="translate(-206 49.389)"></path>
    <path fill="#576d7e" d="M230.49-33.336a.5.5 0 0 0-.492.508v3.781a3.65 3.65 0 0 1-3.68 3.658H222.5a.5.5 0 1 0 0 1h3.818c2.584 0 4.68-2.084 4.68-4.658v-3.781a.5.5 0 0 0-.508-.508z" overflow="visible" style="line-height:normal;text-indent:0;text-align:start;text-decoration-line:none;text-decoration-style:solid;text-decoration-color:#000;text-transform:none;block-progression:tb;isolation:auto;mix-blend-mode:normal" transform="translate(-206 49.389)"></path>
    <path fill="#576d7e" fill-rule="evenodd" d="M230.473-33.389a.5.5 0 0 0-.346.147l-1.414 1.414a.5.5 0 1 0 .707.707l1.06-1.06 1.061 1.06a.5.5 0 1 0 .707-.707l-1.414-1.414a.5.5 0 0 0-.361-.147z" overflow="visible" style="line-height:normal;text-indent:0;text-align:start;text-decoration-line:none;text-decoration-style:solid;text-decoration-color:#000;text-transform:none;block-progression:tb;isolation:auto;mix-blend-mode:normal" transform="translate(-206 49.389)"></path>
    <path fill="#f8b84e" d="M213.48-32.389c-4.143 0-7.48 3.37-7.48 7.5 0 4.132 3.337 7.5 7.48 7.5 4.143 0 7.52-3.364 7.52-7.5a.5.5 0 0 0-.04-.195.5.5 0 0 0-.001-.002c-.112-4.038-3.407-7.303-7.479-7.303zm0 1c3.603 0 6.52 2.91 6.52 6.5 0 3.593-2.917 6.5-6.52 6.5a6.47 6.47 0 0 1-6.48-6.5c0-3.594 2.877-6.5 6.48-6.5z" overflow="visible" style="line-height:normal;text-indent:0;text-align:start;text-decoration-line:none;text-decoration-style:solid;text-decoration-color:#000;text-transform:none;block-progression:tb;isolation:auto;mix-blend-mode:normal" transform="translate(-206 49.389)"></path>
    <path fill="#34485c" fill-rule="evenodd" d="M213.492-29.387a.5.5 0 0 0-.492.507v.44c-.98.206-1.748.998-1.748 1.996 0 1.163 1.041 2.055 2.248 2.055.73 0 1.248.495 1.248 1.054 0 .56-.518 1.053-1.248 1.053s-1.248-.494-1.248-1.053c.01-.676-1.01-.676-1 0 0 1.025.784 1.782 1.748 1.998v.444a.5.5 0 1 0 1 0v-.446c.98-.206 1.748-.998 1.748-1.996 0-1.162-1.04-2.054-2.248-2.054-.73 0-1.248-.496-1.248-1.055 0-.552.506-1.036 1.22-1.049a.5.5 0 0 0 .057 0c.714.014 1.22.496 1.22 1.047-.01.676 1.009.676 1 0 0-1.025-.785-1.781-1.749-1.998v-.438a.5.5 0 0 0-.508-.507z" overflow="visible" style="line-height:normal;text-indent:0;text-align:start;text-decoration-line:none;text-decoration-style:solid;text-decoration-color:#000;text-transform:none;block-progression:tb;isolation:auto;mix-blend-mode:normal" transform="translate(-206 49.389)"></path>
    <path fill="#576d7e" d="M217.682-42.387c-2.584 0-4.682 2.084-4.682 4.658v3.782a.5.5 0 1 0 1 0v-3.782c0-2.034 1.632-3.658 3.682-3.658h3.818a.5.5 0 1 0 0-1h-3.818z" overflow="visible" style="line-height:normal;text-indent:0;text-align:start;text-decoration-line:none;text-decoration-style:solid;text-decoration-color:#000;text-transform:none;block-progression:tb;isolation:auto;mix-blend-mode:normal" transform="translate(-206 49.389)"></path>
    <path fill="#576d7e" fill-rule="evenodd" d="M212.1-35.807a.5.5 0 0 0-.348.858l1.414 1.414a.5.5 0 0 0 .707 0l1.414-1.414a.5.5 0 1 0-.707-.707l-1.06 1.06-1.061-1.06a.5.5 0 0 0-.36-.15z" overflow="visible" style="line-height:normal;text-indent:0;text-align:start;text-decoration-line:none;text-decoration-style:solid;text-decoration-color:#000;text-transform:none;block-progression:tb;isolation:auto;mix-blend-mode:normal" transform="translate(-206 49.389)"></path>
  </g>
</svg>
