<svg xmlns="http://www.w3.org/2000/svg" width="32" height="32" id="piggy">
  <g transform="translate(0 -1020.362)">
    <path fill="#ee7581" stroke="#105286" stroke-linecap="round" stroke-linejoin="round" stroke-width=".966" d="M24.47 1046.527c3.918-3.103 4.666-7.92 1.813-11.682-2.853-3.762-8.574-5.502-13.873-4.22l-4.762 2.192c-1.319.986-2.34 2.195-2.988 3.537l-.064.13h-.731a2.89 2.89 0 0 0-2.897 2.897v1.931a2.89 2.89 0 0 0 2.897 2.897h1.408l.028.081c.868 1.28 2.094 2.387 3.583 3.236l.115.093v3.743h3.863v-2.264l.086-.068c2.537.513 5.215.36 7.632-.439l.007.015v2.755h3.862v-4.803z" color="#000" overflow="visible" style="isolation:auto;mix-blend-mode:normal"></path>
    <path fill="#ee7581" stroke="#105286" stroke-linecap="round" stroke-linejoin="round" stroke-width=".966" d="M13.004 1031.888a4.615 4.615 0 0 0-3.545-2.605 4.58 4.58 0 0 0-4.095 1.572H5.35a4.647 4.647 0 0 1 2.942 3.204" color="#000" overflow="visible" style="isolation:auto;mix-blend-mode:normal"></path>
    <circle cx="9.176" cy="1037.45" r=".483" fill="#fff" stroke="#105286" stroke-linecap="round" stroke-linejoin="round" stroke-width="2" color="#000" overflow="visible" style="isolation:auto;mix-blend-mode:normal"></circle>
    <path fill="none" stroke="#105286" stroke-linecap="round" stroke-linejoin="round" d="M27.541 1036.837c3.885-2.395 1.251-6.304.072-3.853-.687 1.89 2.978 2.514 3.169-2.746"></path>
    <circle cx="16.841" cy="1026.923" r="5.311" fill="#fcd062" stroke="#105286" stroke-linecap="round" stroke-linejoin="round" stroke-miterlimit="0" color="#000" overflow="visible" style="isolation:auto;mix-blend-mode:normal"></circle>
    <path fill="#105286" fill-rule="evenodd" d="M14.453 1023.06v.01h-.023v.966h.992c.902 0 1.357.427 1.52.956h-2.489v.966h2.49c-.164.53-.618.958-1.52.958H14.43v.966h.285l2.946 2.904.679-.686-2.312-2.282c1.047-.22 1.72-1 1.904-1.86h1.319v-.965h-1.319a2.397 2.397 0 0 0-.463-.966h1.782v-.966h-4.798z" color="#000" font-family="sans-serif" font-weight="400" overflow="visible" style="line-height:normal;text-indent:0;text-align:start;text-decoration-line:none;text-decoration-style:solid;text-decoration-color:#000;text-transform:none;block-progression:tb;isolation:auto;mix-blend-mode:normal"></path>
    <path fill="none" stroke="#105286" d="M13 1033.862h7.725"></path>
    <circle cx="8.693" cy="1024.268" r=".966" fill="#25b39e" stroke="#105286" stroke-dashoffset=".5" stroke-linecap="round" stroke-linejoin="round" stroke-width=".966" color="#000" overflow="visible" style="isolation:auto;mix-blend-mode:normal"></circle>
    <path fill="none" stroke="#105286" d="M22.695 1023.302h2.897m-1.449-1.449v2.897"></path>
    <path fill="#ee7581" stroke="#105286" stroke-linecap="round" stroke-linejoin="round" stroke-width=".966" d="M9.547 1032.422c-.431-1.636-1.397-2.313-4.183-1.567H5.35a4.647 4.647 0 0 1 2.942 3.204" color="#000" overflow="visible" style="isolation:auto;mix-blend-mode:normal"></path>
    <path fill="#105286" fill-rule="evenodd" d="M1.417 1039.88v.965h.966v-.966h-.966zm-.03 1.482c.011.353.078.69.196 1h1.63v-1H1.387z" color="#000" font-family="sans-serif" font-weight="400" overflow="visible" style="line-height:normal;text-indent:0;text-align:start;text-decoration-line:none;text-decoration-style:solid;text-decoration-color:#000;text-transform:none;block-progression:tb;isolation:auto;mix-blend-mode:normal"></path>
  </g>
</svg>
