<svg xmlns="http://www.w3.org/2000/svg" viewBox="0 0 64 64" id="business-profit">
  <g>
    <rect width="42" height="33" x="22" fill="#f8cf6d" rx="3"></rect>
    <rect width="38" height="29" x="24" y="2" fill="#fffeff" rx="1"></rect>
    <circle cx="15" cy="16" r="6" fill="#88b8f9"></circle>
    <path fill="#ee7231" d="M31 48.66a1 1 0 0 1-.69-1.72l.59-.57a1 1 0 0 0 .2-1.11 3 3 0 0 1 .61-3.41l.6-.57a1 1 0 0 1 1.38 1.44l-.59.57a1 1 0 0 0-.2 1.11 3 3 0 0 1-.61 3.41c-.67.64-.81.85-1.29.85Z"></path>
    <path fill="#f8cf6d" d="M25 39a1 1 0 0 1-.71-1.71l1-1a1 1 0 0 1 1.42 1.42C25.65 38.77 25.52 39 25 39zM6 9a1 1 0 1 1 1-1 1 1 0 0 1-1 1zm22 51a1 1 0 0 1-.71-1.71l1-1a1 1 0 0 1 1.42 1.42C28.65 59.77 28.52 60 28 60z"></path>
    <path fill="#2f79f0" d="M21.39 32.84C22.16 50.38 22 43.78 22 62a2 2 0 0 1-4 .26C15.23 41.35 16.22 48.55 16 47h-2c-.22 1.55.77-5.65-2 15.26A2 2 0 0 1 8 62c0-18.24-.16-11.59.61-29.16-.24-.35.94 2-8.36-16.86a2 2 0 0 1 3.49-2L10.1 24s2.76 2.82 4.9 2.82S19.91 24 19.91 24l6.35-10a2 2 0 0 1 3.49 2c-8.87 18-8.09 16.44-8.36 16.84Z"></path>
    <path fill="#fffeff" d="M19.91 24c-3.13 7.15-2 4.59-4.91 11-2.91-6.41-1.78-3.85-4.9-11Z"></path>
    <path fill="#0c3798" d="M17.42 29.68 15 35l-2.42-5.32L14 24h2l1.42 5.68z"></path>
    <path fill="#b7dbf9" d="M32 22h4v6h-4z"></path>
    <path fill="#88b8f9" d="M38 18h4v10h-4z"></path>
    <path fill="#2f79f0" d="M44 15h4v13h-4z"></path>
    <path fill="#0c3798" d="M50 13h4v15h-4z"></path>
    <path fill="#ee7231" d="m53.33 5.06-2.83-1a1 1 0 0 0-.66 1.88l.61.22-18.92 10a1 1 0 0 0 .94 1.76L51.23 8l-.17.49a1 1 0 1 0 1.88.66l1-2.83a1 1 0 0 0-.61-1.26zM5.15 48.4a1 1 0 0 1-1-.82L4 46.77a1 1 0 0 0-.79-.77 3 3 0 0 1-2.5-2.4l-.15-.81a1 1 0 0 1 2-.36l.15.81a1 1 0 0 0 .81.78A3 3 0 0 1 6 46.41l.15.81a1 1 0 0 1-1 1.18zM3.35 32c-.53 0-.68-.26-1.71-1.29a1 1 0 0 1 0-1.42 1 1 0 0 1 1.41 0l1 1a1 1 0 0 1-.7 1.71z"></path>
    <path fill="#f8cf6d" d="M3.37 60a1 1 0 1 1 1-1 1 1 0 0 1-1 1Z"></path>
  </g>
</svg>
