<svg width="21" height="21" viewBox="0 0 21 21" fill="none" xmlns="http://www.w3.org/2000/svg">
<path id="Vector" d="M1.35182 9.4965L1.35182 9.49649L1.33512 2.58823C1.33508 2.5844 1.3351 2.58084 1.33514 2.57759M1.35182 9.4965L1.83514 2.58306L1.33514 2.58221C1.33517 2.56908 1.33572 2.55882 1.33597 2.5545L1.33606 2.55298C1.33585 2.55628 1.33533 2.56514 1.33516 2.57648C1.33515 2.57684 1.33514 2.57721 1.33514 2.57759M1.35182 9.4965C1.35375 10.2903 1.99878 10.9324 2.79278 10.9305C3.58669 10.9287 4.22874 10.2836 4.22686 9.48965L4.22686 9.48962L4.21853 6.06089M1.35182 9.4965L4.21853 6.06089M1.33514 2.57759C1.33752 1.789 1.97736 1.14667 2.76872 1.14454C2.77041 1.14452 2.77217 1.14451 2.77397 1.14451L2.77603 1.1445L2.79319 1.14456L9.68703 1.16121L9.68582 1.66121L9.68703 1.16121C10.4807 1.16314 11.123 1.80809 11.1211 2.6022C11.1192 3.3961 10.4741 4.03814 9.68019 4.03626L9.68017 4.03626L6.25148 4.02798L19.4341 17.2106C19.9955 17.772 19.9955 18.6821 19.4341 19.2435C18.8727 19.8049 17.9625 19.8049 17.4011 19.2435L4.21853 6.06089M1.33514 2.57759C1.33513 2.57959 1.33514 2.58159 1.33514 2.5836L4.21853 6.06089M2.77407 1.14454C2.77472 1.14454 2.77537 1.14454 2.77603 1.14454L2.77407 1.14454Z" fill="white" stroke="white"/>
</svg>
