<svg width="63" height="63" viewBox="0 0 63 63" fill="none" xmlns="http://www.w3.org/2000/svg">
<g id="ic_sell">
<rect id="background" width="63" height="63" rx="31.5" fill="#F04444"/>
<path id="Vector" d="M37.2692 38.9907L37.2692 38.9907L32.3961 43.8874C32.3934 43.8902 32.3909 43.8927 32.3885 43.8949M37.2692 38.9907L32.0389 43.5375L32.3918 43.8917C32.3825 43.9009 32.3749 43.9078 32.3716 43.9107L32.3705 43.9117C32.373 43.9095 32.3796 43.9036 32.3877 43.8957C32.388 43.8955 32.3883 43.8952 32.3885 43.8949M37.2692 38.9907C37.8291 38.428 37.827 37.5179 37.2643 36.9578C36.7016 36.3977 35.7914 36.3999 35.2314 36.9626L35.2313 36.9626L32.8127 39.393M37.2692 38.9907L32.8127 39.393M32.3885 43.8949C31.8292 44.4509 30.9226 44.4526 30.3615 43.8946C30.3603 43.8934 30.3591 43.8921 30.3578 43.8909L30.3563 43.8894L30.3442 43.8773L25.4813 38.9908L25.8357 38.6381L25.4813 38.9908C24.9215 38.4282 24.9234 37.518 25.4862 36.9578C26.049 36.3978 26.9591 36.4 27.5191 36.9627L27.5192 36.9627L29.9377 39.393L29.9377 20.75C29.9377 19.9561 30.5813 19.3125 31.3752 19.3125C32.1692 19.3125 32.8127 19.9561 32.8127 20.75L32.8127 39.393M32.3885 43.8949C32.39 43.8935 32.3914 43.8921 32.3928 43.8907L32.8127 39.393M30.3577 43.8908C30.3573 43.8903 30.3568 43.8899 30.3564 43.8894L30.3577 43.8908Z" fill="white" stroke="white"/>
</g>
</svg>
